<svg width="642" height="159" viewBox="0 0 642 159" fill="none" xmlns="http://www.w3.org/2000/svg">
<path d="M110.821 12.9706L54.9519 134.219L108.665 142.246L110.821 12.9706Z" fill="#FFE81D"/>
<path d="M79.8653 11.4042L126.113 137.713L74.2974 87.8654L29.6009 43.085L79.8653 11.4042Z" fill="#56E6A1"/>
<path d="M155.15 42.672L6.87041 81.7295L43.0276 129.401L155.15 42.672Z" fill="#0094FF"/>
<path d="M1.57137 55.7109L164.513 66.2718L144.338 129.383L1.57137 55.7109Z" fill="#C738B8"/>
<g filter="url(#filter0_d)">
<path d="M198.555 99.7289C202.849 99.7289 206.269 97.1829 206.877 92.9269L207.105 91.2549C207.675 87.3029 204.749 85.1749 202.621 83.3509C200.493 81.5269 199.049 80.5009 199.277 78.8669L199.391 78.0309C199.619 76.3969 200.569 75.4849 201.937 75.4849C203.343 75.4849 203.951 76.4729 203.723 78.3349L203.609 79.1709C203.571 79.5129 203.761 79.7409 204.103 79.7409H208.169C208.549 79.7409 208.777 79.5129 208.815 79.1709L209.043 77.4989C209.651 73.2429 206.915 70.6969 202.621 70.6969C198.327 70.6969 194.869 73.2429 194.299 77.4989L194.033 79.1709C193.501 83.1229 196.427 85.2129 198.555 87.0369C200.683 88.8609 202.089 89.9249 201.861 91.5589L201.747 92.3949C201.519 94.0289 200.607 94.9409 199.201 94.9409C197.795 94.9409 197.187 93.9529 197.415 92.1669L197.529 91.2549C197.567 90.9129 197.415 90.6849 197.035 90.6849H193.007C192.627 90.6849 192.399 90.9129 192.361 91.2549L192.133 92.9269C191.525 97.1829 194.261 99.7289 198.555 99.7289ZM217.905 99.7289C222.199 99.7289 225.657 97.1829 226.227 92.9269L228.431 77.4989C229.001 73.2429 226.265 70.6969 221.971 70.6969C217.677 70.6969 214.257 73.2429 213.649 77.4989L211.483 92.9269C210.875 97.1829 213.611 99.7289 217.905 99.7289ZM218.551 94.9409C217.107 94.9409 216.537 93.9529 216.803 92.0909L218.703 78.3349C218.969 76.4729 219.843 75.4849 221.287 75.4849C222.731 75.4849 223.339 76.4729 223.073 78.3349L221.173 92.0909C220.907 93.9529 219.995 94.9409 218.551 94.9409ZM230.74 98.8929C230.702 99.2349 230.892 99.4629 231.234 99.4629H241.038C241.38 99.4629 241.646 99.2349 241.684 98.8929L242.178 95.3969C242.216 95.0549 242.026 94.8269 241.684 94.8269H237.086C236.744 94.8269 236.554 94.5989 236.592 94.2569L239.784 71.5329C239.822 71.1909 239.632 70.9629 239.29 70.9629H235.224C234.844 70.9629 234.616 71.1909 234.578 71.5329L230.74 98.8929ZM246.864 99.4629H250.93C251.31 99.4629 251.538 99.2349 251.576 98.8929L255.414 71.5329C255.452 71.1909 255.262 70.9629 254.92 70.9629H250.854C250.474 70.9629 250.246 71.1909 250.208 71.5329L246.37 98.8929C246.332 99.2349 246.522 99.4629 246.864 99.4629ZM257.819 99.4629H264.621C268.953 99.4629 272.373 96.9169 272.981 92.6609L275.071 77.7649C275.679 73.5089 272.943 70.9629 268.611 70.9629H261.809C261.429 70.9629 261.201 71.1909 261.163 71.5329L257.325 98.8929C257.287 99.2349 257.477 99.4629 257.819 99.4629ZM263.709 94.6749C263.367 94.6749 263.177 94.4469 263.215 94.1049L265.723 76.2829C265.761 75.9409 266.027 75.7129 266.369 75.7129H267.965C269.409 75.7129 270.017 76.7389 269.751 78.6009L267.889 91.8249C267.623 93.6869 266.749 94.6749 265.305 94.6749H263.709ZM275.974 99.4629H279.736C280.078 99.4629 280.23 99.3489 280.382 98.8929L281.142 96.4609C281.218 96.2329 281.332 95.8909 281.788 95.8909H285.626C286.082 95.8909 286.12 96.2329 286.12 96.4609L286.158 98.8929C286.158 99.3489 286.31 99.4629 286.652 99.4629H290.414C290.794 99.4629 291.022 99.2729 290.984 98.8169L289.692 71.6469C289.654 71.0769 289.54 70.9629 288.932 70.9629H285.436C284.828 70.9629 284.714 71.0769 284.524 71.6469L275.556 98.8169C275.404 99.2729 275.594 99.4629 275.974 99.4629ZM283.004 91.4069C282.738 91.4069 282.7 91.2549 282.776 90.9889L285.474 81.9069C285.55 81.6789 285.854 81.6789 285.854 81.9069L286.044 90.9889C286.044 91.2549 285.93 91.4069 285.664 91.4069H283.004ZM295.834 99.4629H299.9C300.28 99.4629 300.508 99.2349 300.546 98.8929L301.914 89.2029C301.952 88.8609 302.218 88.6329 302.56 88.6329H303.89C304.232 88.6329 304.346 88.8609 304.384 89.2029L304.802 98.8929C304.84 99.4629 305.068 99.4629 305.562 99.4629H309.324C309.628 99.4629 309.932 99.2729 309.894 98.6649L309.21 87.6449C309.172 87.3029 309.4 87.1129 309.628 86.9229C311.072 85.7449 312.25 83.8449 312.516 81.8309L313.086 77.7649C313.694 73.5089 310.958 70.9629 306.626 70.9629H299.824C299.444 70.9629 299.216 71.1909 299.178 71.5329L295.34 98.8929C295.302 99.2349 295.492 99.4629 295.834 99.4629ZM303.206 83.8449C302.864 83.8449 302.674 83.6169 302.712 83.2749L303.738 76.2829C303.776 75.9409 304.042 75.7129 304.384 75.7129H305.98C307.424 75.7129 308.032 76.7389 307.766 78.6009L307.424 80.9949C307.158 82.8569 306.284 83.8449 304.84 83.8449H303.206ZM315.621 99.4629H319.687C320.067 99.4629 320.295 99.2349 320.333 98.8929L324.171 71.5329C324.209 71.1909 324.019 70.9629 323.677 70.9629H319.611C319.231 70.9629 319.003 71.1909 318.965 71.5329L315.127 98.8929C315.089 99.2349 315.279 99.4629 315.621 99.4629ZM332.579 99.7289C336.873 99.7289 340.293 97.1829 340.901 92.9269L341.129 91.2549C341.699 87.3029 338.773 85.1749 336.645 83.3509C334.517 81.5269 333.073 80.5009 333.301 78.8669L333.415 78.0309C333.643 76.3969 334.593 75.4849 335.961 75.4849C337.367 75.4849 337.975 76.4729 337.747 78.3349L337.633 79.1709C337.595 79.5129 337.785 79.7409 338.127 79.7409H342.193C342.573 79.7409 342.801 79.5129 342.839 79.1709L343.067 77.4989C343.675 73.2429 340.939 70.6969 336.645 70.6969C332.351 70.6969 328.893 73.2429 328.323 77.4989L328.057 79.1709C327.525 83.1229 330.451 85.2129 332.579 87.0369C334.707 88.8609 336.113 89.9249 335.885 91.5589L335.771 92.3949C335.543 94.0289 334.631 94.9409 333.225 94.9409C331.819 94.9409 331.211 93.9529 331.439 92.1669L331.553 91.2549C331.591 90.9129 331.439 90.6849 331.059 90.6849H327.031C326.651 90.6849 326.423 90.9129 326.385 91.2549L326.157 92.9269C325.549 97.1829 328.285 99.7289 332.579 99.7289ZM351.892 99.7289C356.224 99.7289 359.682 97.1829 360.252 93.0029L360.67 90.0009C360.708 89.6589 360.518 89.4309 360.176 89.4309H356.11C355.73 89.4309 355.502 89.6589 355.464 90.0009L355.16 92.1669C354.894 93.9529 353.982 94.9409 352.576 94.9409C351.132 94.9409 350.524 93.9529 350.79 92.1669L352.728 78.2589C352.994 76.4729 353.868 75.4849 355.312 75.4849C356.718 75.4849 357.364 76.4729 357.098 78.2589L356.794 80.4249C356.756 80.7669 356.908 80.9949 357.288 80.9949H361.354C361.696 80.9949 361.962 80.7669 362 80.4249L362.456 77.4229C363.064 73.2429 360.29 70.6969 355.996 70.6969C351.702 70.6969 348.282 73.2429 347.674 77.4229L345.47 93.0029C344.862 97.1829 347.598 99.7289 351.892 99.7289ZM364.998 99.4629H369.064C369.444 99.4629 369.672 99.2349 369.71 98.8929L371.23 88.0249C371.268 87.6829 371.534 87.4549 371.876 87.4549H375.638C375.98 87.4549 376.17 87.6829 376.132 88.0249L374.612 98.8929C374.574 99.2349 374.764 99.4629 375.106 99.4629H379.172C379.552 99.4629 379.78 99.2349 379.818 98.8929L383.656 71.5329C383.694 71.1909 383.504 70.9629 383.162 70.9629H379.096C378.716 70.9629 378.488 71.1909 378.45 71.5329L376.968 82.1349C376.93 82.4769 376.664 82.7049 376.322 82.7049H372.56C372.218 82.7049 372.028 82.4769 372.066 82.1349L373.548 71.5329C373.586 71.1909 373.396 70.9629 373.054 70.9629H368.988C368.608 70.9629 368.38 71.1909 368.342 71.5329L364.504 98.8929C364.466 99.2349 364.656 99.4629 364.998 99.4629ZM392.393 99.7289C396.725 99.7289 400.145 97.1829 400.753 93.0029L401.893 84.7189C401.931 84.3769 401.741 84.1489 401.399 84.1489H395.167C394.825 84.1489 394.559 84.3769 394.521 84.7189L393.989 88.3669C393.951 88.7469 394.141 88.9369 394.483 88.9369H395.547C395.889 88.9369 396.079 89.1649 396.041 89.5069L395.661 92.1669C395.395 93.9529 394.483 94.9409 393.077 94.9409C391.633 94.9409 391.025 93.9529 391.291 92.1669L393.229 78.2589C393.495 76.4729 394.369 75.4849 395.813 75.4849C397.219 75.4849 397.865 76.4729 397.599 78.2589L397.333 80.1209C397.295 80.4629 397.485 80.6909 397.827 80.6909H401.893C402.235 80.6909 402.501 80.4629 402.539 80.1209L402.957 77.4229C403.565 73.2429 400.791 70.6969 396.497 70.6969C392.203 70.6969 388.783 73.2429 388.175 77.4229L385.971 93.0029C385.363 97.1829 388.099 99.7289 392.393 99.7289ZM405.648 99.4629H415.452C415.794 99.4629 416.06 99.2349 416.098 98.8929L416.592 95.3969C416.63 95.0549 416.44 94.8269 416.098 94.8269H411.5C411.158 94.8269 410.968 94.5989 411.006 94.2569L411.88 87.9869C411.918 87.6449 412.222 87.4169 412.564 87.4169H417.162C417.504 87.4169 417.77 87.1889 417.808 86.8469L418.302 83.3509C418.34 83.0089 418.15 82.7809 417.808 82.7809H413.21C412.868 82.7809 412.678 82.5529 412.716 82.2109L413.552 76.1689C413.59 75.8269 413.856 75.5989 414.198 75.5989H418.796C419.138 75.5989 419.404 75.3709 419.442 75.0289L419.936 71.5329C419.974 71.1909 419.784 70.9629 419.442 70.9629H409.638C409.258 70.9629 409.03 71.1909 408.992 71.5329L405.154 98.8929C405.116 99.2349 405.306 99.4629 405.648 99.4629ZM422.021 99.4629H426.087C426.467 99.4629 426.695 99.2349 426.733 98.8929L428.253 88.0249C428.291 87.6829 428.557 87.4549 428.899 87.4549H432.661C433.003 87.4549 433.193 87.6829 433.155 88.0249L431.635 98.8929C431.597 99.2349 431.787 99.4629 432.129 99.4629H436.195C436.575 99.4629 436.803 99.2349 436.841 98.8929L440.679 71.5329C440.717 71.1909 440.527 70.9629 440.185 70.9629H436.119C435.739 70.9629 435.511 71.1909 435.473 71.5329L433.991 82.1349C433.953 82.4769 433.687 82.7049 433.345 82.7049H429.583C429.241 82.7049 429.051 82.4769 429.089 82.1349L430.571 71.5329C430.609 71.1909 430.419 70.9629 430.077 70.9629H426.011C425.631 70.9629 425.403 71.1909 425.365 71.5329L421.527 98.8929C421.489 99.2349 421.679 99.4629 422.021 99.4629ZM445.463 99.4629H449.529C449.909 99.4629 450.137 99.2349 450.175 98.8929L453.329 76.2829C453.367 75.9409 453.633 75.7129 453.975 75.7129H456.749C457.091 75.7129 457.357 75.4849 457.395 75.1429L457.889 71.5329C457.965 71.1529 457.737 70.9629 457.395 70.9629H445.653C445.311 70.9629 445.045 71.1909 445.007 71.5329L444.513 75.1429C444.475 75.5229 444.665 75.7129 445.007 75.7129H447.629C447.971 75.7129 448.161 75.9409 448.123 76.2829L444.969 98.8929C444.931 99.2349 445.121 99.4629 445.463 99.4629ZM455.695 99.4629H459.457C459.799 99.4629 459.951 99.3489 460.103 98.8929L460.863 96.4609C460.939 96.2329 461.053 95.8909 461.509 95.8909H465.347C465.803 95.8909 465.841 96.2329 465.841 96.4609L465.879 98.8929C465.879 99.3489 466.031 99.4629 466.373 99.4629H470.135C470.515 99.4629 470.743 99.2729 470.705 98.8169L469.413 71.6469C469.375 71.0769 469.261 70.9629 468.653 70.9629H465.157C464.549 70.9629 464.435 71.0769 464.245 71.6469L455.277 98.8169C455.125 99.2729 455.315 99.4629 455.695 99.4629ZM462.725 91.4069C462.459 91.4069 462.421 91.2549 462.497 90.9889L465.195 81.9069C465.271 81.6789 465.575 81.6789 465.575 81.9069L465.765 90.9889C465.765 91.2549 465.651 91.4069 465.385 91.4069H462.725ZM475.555 99.4629H479.469C479.811 99.4629 480.077 99.2349 480.115 98.8929L481.939 85.8209C481.977 85.5549 482.319 85.5169 482.357 85.7449L485.853 99.0069C485.967 99.3869 486.195 99.4629 486.537 99.4629H490.223C490.565 99.4629 490.831 99.2729 490.869 98.9309L494.707 71.5329C494.745 71.1909 494.555 70.9629 494.213 70.9629H490.299C489.957 70.9629 489.691 71.1909 489.653 71.5329L487.791 84.7569C487.753 84.9849 487.487 85.0229 487.411 84.7949L483.953 71.4569C483.839 71.0389 483.649 70.9629 483.231 70.9629H479.545C479.203 70.9629 478.937 71.1909 478.899 71.5329L475.061 98.8929C475.023 99.2349 475.213 99.4629 475.555 99.4629ZM497.085 99.4629H503.887C508.219 99.4629 511.639 96.9169 512.247 92.6609L514.337 77.7649C514.945 73.5089 512.209 70.9629 507.877 70.9629H501.075C500.695 70.9629 500.467 71.1909 500.429 71.5329L496.591 98.8929C496.553 99.2349 496.743 99.4629 497.085 99.4629ZM502.975 94.6749C502.633 94.6749 502.443 94.4469 502.481 94.1049L504.989 76.2829C505.027 75.9409 505.293 75.7129 505.635 75.7129H507.231C508.675 75.7129 509.283 76.7389 509.017 78.6009L507.155 91.8249C506.889 93.6869 506.015 94.6749 504.571 94.6749H502.975ZM517.243 99.4629H527.047C527.389 99.4629 527.655 99.2349 527.693 98.8929L528.187 95.3969C528.225 95.0549 528.035 94.8269 527.693 94.8269H523.095C522.753 94.8269 522.563 94.5989 522.601 94.2569L523.475 87.9869C523.513 87.6449 523.817 87.4169 524.159 87.4169H528.757C529.099 87.4169 529.365 87.1889 529.403 86.8469L529.897 83.3509C529.935 83.0089 529.745 82.7809 529.403 82.7809H524.805C524.463 82.7809 524.273 82.5529 524.311 82.2109L525.147 76.1689C525.185 75.8269 525.451 75.5989 525.793 75.5989H530.391C530.733 75.5989 530.999 75.3709 531.037 75.0289L531.531 71.5329C531.569 71.1909 531.379 70.9629 531.037 70.9629H521.233C520.853 70.9629 520.625 71.1909 520.587 71.5329L516.749 98.8929C516.711 99.2349 516.901 99.4629 517.243 99.4629ZM533.616 99.4629H537.682C538.062 99.4629 538.29 99.2349 538.328 98.8929L539.696 89.2029C539.734 88.8609 540 88.6329 540.342 88.6329H541.672C542.014 88.6329 542.128 88.8609 542.166 89.2029L542.584 98.8929C542.622 99.4629 542.85 99.4629 543.344 99.4629H547.106C547.41 99.4629 547.714 99.2729 547.676 98.6649L546.992 87.6449C546.954 87.3029 547.182 87.1129 547.41 86.9229C548.854 85.7449 550.032 83.8449 550.298 81.8309L550.868 77.7649C551.476 73.5089 548.74 70.9629 544.408 70.9629H537.606C537.226 70.9629 536.998 71.1909 536.96 71.5329L533.122 98.8929C533.084 99.2349 533.274 99.4629 533.616 99.4629ZM540.988 83.8449C540.646 83.8449 540.456 83.6169 540.494 83.2749L541.52 76.2829C541.558 75.9409 541.824 75.7129 542.166 75.7129H543.762C545.206 75.7129 545.814 76.7389 545.548 78.6009L545.206 80.9949C544.94 82.8569 544.066 83.8449 542.622 83.8449H540.988ZM559.184 99.7289C563.478 99.7289 566.898 97.1829 567.506 92.9269L567.734 91.2549C568.304 87.3029 565.378 85.1749 563.25 83.3509C561.122 81.5269 559.678 80.5009 559.906 78.8669L560.02 78.0309C560.248 76.3969 561.198 75.4849 562.566 75.4849C563.972 75.4849 564.58 76.4729 564.352 78.3349L564.238 79.1709C564.2 79.5129 564.39 79.7409 564.732 79.7409H568.798C569.178 79.7409 569.406 79.5129 569.444 79.1709L569.672 77.4989C570.28 73.2429 567.544 70.6969 563.25 70.6969C558.956 70.6969 555.498 73.2429 554.928 77.4989L554.662 79.1709C554.13 83.1229 557.056 85.2129 559.184 87.0369C561.312 88.8609 562.718 89.9249 562.49 91.5589L562.376 92.3949C562.148 94.0289 561.236 94.9409 559.83 94.9409C558.424 94.9409 557.816 93.9529 558.044 92.1669L558.158 91.2549C558.196 90.9129 558.044 90.6849 557.664 90.6849H553.636C553.256 90.6849 553.028 90.9129 552.99 91.2549L552.762 92.9269C552.154 97.1829 554.89 99.7289 559.184 99.7289ZM573.1 99.5009C574.848 99.5009 576.444 98.0569 576.444 96.2709C576.444 94.8269 575.38 93.7249 573.898 93.7249C572.15 93.7249 570.592 95.1689 570.592 96.9549C570.592 98.3989 571.618 99.5009 573.1 99.5009ZM587.337 99.7289C591.631 99.7289 595.089 97.1829 595.659 92.9269L597.863 77.4989C598.433 73.2429 595.697 70.6969 591.403 70.6969C587.109 70.6969 583.689 73.2429 583.081 77.4989L580.915 92.9269C580.307 97.1829 583.043 99.7289 587.337 99.7289ZM587.983 94.9409C586.539 94.9409 585.969 93.9529 586.235 92.0909L588.135 78.3349C588.401 76.4729 589.275 75.4849 590.719 75.4849C592.163 75.4849 592.771 76.4729 592.505 78.3349L590.605 92.0909C590.339 93.9529 589.427 94.9409 587.983 94.9409ZM600.665 99.4629H604.731C605.111 99.4629 605.339 99.2349 605.377 98.8929L606.745 89.2029C606.783 88.8609 607.049 88.6329 607.391 88.6329H608.721C609.063 88.6329 609.177 88.8609 609.215 89.2029L609.633 98.8929C609.671 99.4629 609.899 99.4629 610.393 99.4629H614.155C614.459 99.4629 614.763 99.2729 614.725 98.6649L614.041 87.6449C614.003 87.3029 614.231 87.1129 614.459 86.9229C615.903 85.7449 617.081 83.8449 617.347 81.8309L617.917 77.7649C618.525 73.5089 615.789 70.9629 611.457 70.9629H604.655C604.275 70.9629 604.047 71.1909 604.009 71.5329L600.171 98.8929C600.133 99.2349 600.323 99.4629 600.665 99.4629ZM608.037 83.8449C607.695 83.8449 607.505 83.6169 607.543 83.2749L608.569 76.2829C608.607 75.9409 608.873 75.7129 609.215 75.7129H610.811C612.255 75.7129 612.863 76.7389 612.597 78.6009L612.255 80.9949C611.989 82.8569 611.115 83.8449 609.671 83.8449H608.037ZM626.798 99.7289C631.13 99.7289 634.55 97.1829 635.158 93.0029L636.298 84.7189C636.336 84.3769 636.146 84.1489 635.804 84.1489H629.572C629.23 84.1489 628.964 84.3769 628.926 84.7189L628.394 88.3669C628.356 88.7469 628.546 88.9369 628.888 88.9369H629.952C630.294 88.9369 630.484 89.1649 630.446 89.5069L630.066 92.1669C629.8 93.9529 628.888 94.9409 627.482 94.9409C626.038 94.9409 625.43 93.9529 625.696 92.1669L627.634 78.2589C627.9 76.4729 628.774 75.4849 630.218 75.4849C631.624 75.4849 632.27 76.4729 632.004 78.2589L631.738 80.1209C631.7 80.4629 631.89 80.6909 632.232 80.6909H636.298C636.64 80.6909 636.906 80.4629 636.944 80.1209L637.362 77.4229C637.97 73.2429 635.196 70.6969 630.902 70.6969C626.608 70.6969 623.188 73.2429 622.58 77.4229L620.376 93.0029C619.768 97.1829 622.504 99.7289 626.798 99.7289Z" fill="white"/>
</g>
<defs>
<filter id="filter0_d" x="192.049" y="70.6969" width="449.396" height="33.032" filterUnits="userSpaceOnUse" color-interpolation-filters="sRGB">
<feFlood flood-opacity="0" result="BackgroundImageFix"/>
<feColorMatrix in="SourceAlpha" type="matrix" values="0 0 0 0 0 0 0 0 0 0 0 0 0 0 0 0 0 0 127 0"/>
<feOffset dx="2" dy="2"/>
<feGaussianBlur stdDeviation="1"/>
<feColorMatrix type="matrix" values="0 0 0 0 0 0 0 0 0 0 0 0 0 0 0 0 0 0 0.25 0"/>
<feBlend mode="normal" in2="BackgroundImageFix" result="effect1_dropShadow"/>
<feBlend mode="normal" in="SourceGraphic" in2="effect1_dropShadow" result="shape"/>
</filter>
</defs>
</svg>
